<?xml version="1.0" encoding="UTF-8" standalone="no"?>
<!-- Created with Inkscape (http://www.inkscape.org/) -->

<svg
   xmlns:dc="http://purl.org/dc/elements/1.1/"
   xmlns:cc="http://creativecommons.org/ns#"
   xmlns:rdf="http://www.w3.org/1999/02/22-rdf-syntax-ns#"
   xmlns:svg="http://www.w3.org/2000/svg"
   xmlns="http://www.w3.org/2000/svg"
   version="1.1"
   width="281.56732"
   height="232.32494"
   id="svg2">
  <defs
     id="defs4" />
  <metadata
     id="metadata7">
    <rdf:RDF>
      <cc:Work
         rdf:about="">
        <dc:format>image/svg+xml</dc:format>
        <dc:type
           rdf:resource="http://purl.org/dc/dcmitype/StillImage" />
        <dc:title></dc:title>
      </cc:Work>
    </rdf:RDF>
  </metadata>
  <g
     transform="translate(-94.454337,-33.628417)"
     id="layer1">
    <path
       d="M 166.5705,39.074515 282.94738,265.55802"
       id="path2985"
       style="fill:none;stroke:#000000;stroke-width:0.79066956;stroke-linecap:butt;stroke-linejoin:miter;stroke-miterlimit:4;stroke-opacity:1;stroke-dasharray:6.32535646, 6.32535646;stroke-dashoffset:0" />
    <path
       d="M 227.28432,157.36703 334.36049,34.128417"
       id="path3755"
       style="fill:none;stroke:#000000;stroke-width:1;stroke-linecap:butt;stroke-linejoin:miter;stroke-miterlimit:4;stroke-opacity:1;stroke-dasharray:8, 8;stroke-dashoffset:0" />
    <path
       d="M 248.49753,200.80359 94.954337,209.89496"
       id="path3757"
       style="fill:none;stroke:#000000;stroke-width:1;stroke-linecap:butt;stroke-linejoin:miter;stroke-miterlimit:4;stroke-opacity:1;stroke-dasharray:8, 8;stroke-dashoffset:0" />
    <path
       d="m 380.82751,162.41779 a 62.124382,53.538086 0 1 1 -124.24877,0 62.124382,53.538086 0 1 1 124.24877,0 z"
       transform="matrix(0.76530105,0.42404031,-0.37285643,0.6334953,125.75115,-61.473957)"
       id="path3759"
       style="fill:#ffffff;stroke:#ff0000;stroke-width:1.87198329;stroke-miterlimit:4;stroke-opacity:1;stroke-dasharray:none;stroke-dashoffset:0" />
    <path
       d="m 380.82751,162.41779 a 62.124382,53.538086 0 1 1 -124.24877,0 62.124382,53.538086 0 1 1 124.24877,0 z"
       transform="matrix(-0.01691353,0.64406848,-0.35152042,-0.03590447,235.98455,-52.325141)"
       id="path3759-0"
       style="fill:#ffffff;stroke:#ff0000;stroke-width:3.15034223;stroke-miterlimit:4;stroke-opacity:1;stroke-dasharray:none;stroke-dashoffset:0" />
    <path
       d="m 380.82751,162.41779 a 62.124382,53.538086 0 1 1 -124.24877,0 62.124382,53.538086 0 1 1 124.24877,0 z"
       transform="matrix(-0.02331256,0.16162344,-0.48451398,-0.00900992,300.12963,180.42023)"
       id="path3759-0-3"
       style="fill:#ffffff;stroke:#ff0000;stroke-width:5.35665512;stroke-miterlimit:4;stroke-opacity:1;stroke-dasharray:none;stroke-dashoffset:0" />
    <path
       d="m 306.82901,172.26196 10.61625,10.61625"
       id="path3826"
       style="fill:#ff0000;stroke:#ff0000;stroke-width:1.5;stroke-linecap:butt;stroke-linejoin:miter;stroke-miterlimit:4;stroke-opacity:1;stroke-dasharray:none" />
    <path
       d="m 317.44526,172.26196 -10.61625,10.61625"
       id="path3826-4"
       style="fill:#ff0000;stroke:#ff0000;stroke-width:1.5;stroke-linecap:butt;stroke-linejoin:miter;stroke-miterlimit:4;stroke-opacity:1;stroke-dasharray:none" />
    <path
       d="m 168.43812,142.96753 10.61625,10.61625"
       id="path3826-7"
       style="fill:#ff0000;stroke:#ff0000;stroke-width:1.5;stroke-linecap:butt;stroke-linejoin:miter;stroke-miterlimit:4;stroke-opacity:1;stroke-dasharray:none" />
    <path
       d="m 179.05437,142.96753 -10.61625,10.61625"
       id="path3826-4-2"
       style="fill:#ff0000;stroke:#ff0000;stroke-width:1.5;stroke-linecap:butt;stroke-linejoin:miter;stroke-miterlimit:4;stroke-opacity:1;stroke-dasharray:none" />
    <path
       d="m 208.84422,225.80003 10.61625,10.61625"
       id="path3826-2"
       style="fill:#ff0000;stroke:#ff0000;stroke-width:1.5;stroke-linecap:butt;stroke-linejoin:miter;stroke-miterlimit:4;stroke-opacity:1;stroke-dasharray:none" />
    <path
       d="m 219.46047,225.80003 -10.61625,10.61625"
       id="path3826-4-22"
       style="fill:#ff0000;stroke:#ff0000;stroke-width:1.5;stroke-linecap:butt;stroke-linejoin:miter;stroke-miterlimit:4;stroke-opacity:1;stroke-dasharray:none" />
    <path
       d="m 463.66002,216.46095 a 6.5659914,6.5659914 0 1 1 -13.13199,0 6.5659914,6.5659914 0 1 1 13.13199,0 z"
       transform="matrix(0.44770162,0,0,0.44770162,69.109607,60.457106)"
       id="path3905"
       style="fill:#000000;stroke:#000000;stroke-width:1.5;stroke-miterlimit:4;stroke-opacity:1;stroke-dasharray:none;stroke-dashoffset:0" />
    <path
       d="m 463.66002,216.46095 a 6.5659914,6.5659914 0 1 1 -13.13199,0 6.5659914,6.5659914 0 1 1 13.13199,0 z"
       transform="matrix(0.44770162,0,0,0.44770162,103.45479,50.355583)"
       id="path3905-7"
       style="fill:#000000;stroke:#000000;stroke-width:1.5;stroke-miterlimit:4;stroke-opacity:1;stroke-dasharray:none;stroke-dashoffset:0" />
    <path
       d="m 463.66002,216.46095 a 6.5659914,6.5659914 0 1 1 -13.13199,0 6.5659914,6.5659914 0 1 1 13.13199,0 z"
       transform="matrix(0.44770162,0,0,0.44770162,117.59693,60.457108)"
       id="path3905-8"
       style="fill:#000000;stroke:#000000;stroke-width:1.5;stroke-miterlimit:4;stroke-opacity:1;stroke-dasharray:none;stroke-dashoffset:0" />
    <path
       d="m 463.66002,216.46095 a 6.5659914,6.5659914 0 1 1 -13.13199,0 6.5659914,6.5659914 0 1 1 13.13199,0 z"
       transform="matrix(0.44770162,0,0,0.44770162,109.51571,111.97488)"
       id="path3905-2"
       style="fill:#000000;stroke:#000000;stroke-width:1.5;stroke-miterlimit:4;stroke-opacity:1;stroke-dasharray:none;stroke-dashoffset:0" />
    <path
       d="m 463.66002,216.46095 a 6.5659914,6.5659914 0 1 1 -13.13199,0 6.5659914,6.5659914 0 1 1 13.13199,0 z"
       transform="matrix(0.44770162,0,0,0.44770162,18.601977,135.20839)"
       id="path3905-6"
       style="fill:#000000;stroke:#000000;stroke-width:1.5;stroke-miterlimit:4;stroke-opacity:1;stroke-dasharray:none;stroke-dashoffset:0" />
    <path
       d="m 463.66002,216.46095 a 6.5659914,6.5659914 0 1 1 -13.13199,0 6.5659914,6.5659914 0 1 1 13.13199,0 z"
       transform="matrix(0.44770162,0,0,0.44770162,168.10455,20.051006)"
       id="path3905-5"
       style="fill:#000000;stroke:#000000;stroke-width:1.5;stroke-miterlimit:4;stroke-opacity:1;stroke-dasharray:none;stroke-dashoffset:0" />
    <path
       d="m 463.66002,216.46095 a 6.5659914,6.5659914 0 1 1 -13.13199,0 6.5659914,6.5659914 0 1 1 13.13199,0 z"
       transform="matrix(0.44770162,0,0,0.44770162,-55.139159,15.000244)"
       id="path3905-85"
       style="fill:#000000;stroke:#000000;stroke-width:1.5;stroke-miterlimit:4;stroke-opacity:1;stroke-dasharray:none;stroke-dashoffset:0" />
    <path
       d="m 463.66002,216.46095 a 6.5659914,6.5659914 0 1 1 -13.13199,0 6.5659914,6.5659914 0 1 1 13.13199,0 z"
       transform="matrix(0.44770162,0,0,0.44770162,-23.82443,73.589091)"
       id="path3905-3"
       style="fill:#000000;stroke:#000000;stroke-width:1.5;stroke-miterlimit:4;stroke-opacity:1;stroke-dasharray:none;stroke-dashoffset:0" />
  </g>
</svg>
